<?xml version="1.0" standalone="no"?>
<svg xmlns:xlink="http://www.w3.org/1999/xlink" id="wave" style="transform:rotate(180deg); transition: 0.3s" viewBox="0 0 1440 100" version="1.1" xmlns="http://www.w3.org/2000/svg"><defs><linearGradient id="sw-gradient-0" x1="0" x2="0" y1="1" y2="0"><stop stop-color="rgba(255, 249, 234, 1)" offset="0%"/><stop stop-color="rgba(255, 249, 234, 1)" offset="100%"/></linearGradient></defs><path style="transform:translate(0, 0px); opacity:1" fill="url(#sw-gradient-0)" d="M0,30L30,35C60,40,120,50,180,53.3C240,57,300,53,360,58.3C420,63,480,77,540,68.3C600,60,660,30,720,23.3C780,17,840,33,900,43.3C960,53,1020,57,1080,63.3C1140,70,1200,80,1260,71.7C1320,63,1380,37,1440,21.7C1500,7,1560,3,1620,8.3C1680,13,1740,27,1800,40C1860,53,1920,67,1980,75C2040,83,2100,87,2160,75C2220,63,2280,37,2340,21.7C2400,7,2460,3,2520,11.7C2580,20,2640,40,2700,53.3C2760,67,2820,73,2880,78.3C2940,83,3000,87,3060,78.3C3120,70,3180,50,3240,35C3300,20,3360,10,3420,8.3C3480,7,3540,13,3600,20C3660,27,3720,33,3780,36.7C3840,40,3900,40,3960,33.3C4020,27,4080,13,4140,10C4200,7,4260,13,4290,16.7L4320,20L4320,100L4290,100C4260,100,4200,100,4140,100C4080,100,4020,100,3960,100C3900,100,3840,100,3780,100C3720,100,3660,100,3600,100C3540,100,3480,100,3420,100C3360,100,3300,100,3240,100C3180,100,3120,100,3060,100C3000,100,2940,100,2880,100C2820,100,2760,100,2700,100C2640,100,2580,100,2520,100C2460,100,2400,100,2340,100C2280,100,2220,100,2160,100C2100,100,2040,100,1980,100C1920,100,1860,100,1800,100C1740,100,1680,100,1620,100C1560,100,1500,100,1440,100C1380,100,1320,100,1260,100C1200,100,1140,100,1080,100C1020,100,960,100,900,100C840,100,780,100,720,100C660,100,600,100,540,100C480,100,420,100,360,100C300,100,240,100,180,100C120,100,60,100,30,100L0,100Z"/></svg>